<?xml version="1.0" encoding="utf-8"?>
<svg viewBox="0 0 1024 1024" xmlns="http://www.w3.org/2000/svg">
  <rect x="0.005" y="-0.003" width="1024.066" height="1024.014" style="fill: rgb(84, 42, 121);" rx="191.699" ry="191.699"/>
  <path d="M 658.903 410.075 L 766.047 408.881 C 746.119 359.049 711.118 313.92 660.619 280.704 C 577.599 226.099 471.753 219.931 382.953 264.526 C 310.188 301.069 262.847 362.358 241.95 430.754 L 137.467 430.754 C 192.298 177.968 489.654 47.352 716.127 196.309 C 792.764 246.715 847.251 322.21 871.995 407.698 L 963.013 406.683 L 812.65 560.435 Z M 299.429 829.859 C 222.19 779.054 167.453 702.762 142.985 616.447 L 48.715 616.621 L 200.497 464.274 L 352.842 616.06 L 249.098 616.252 C 268.95 666.494 304.09 712.023 354.936 745.464 C 437.961 800.07 543.805 806.234 632.608 761.638 C 705.399 725.081 752.748 663.764 773.631 595.339 L 878.109 595.339 C 823.318 848.174 525.928 978.829 299.429 829.859 Z" style="fill: rgb(255, 255, 255);" transform="matrix(0.973085, 0.230447, -0.230447, 0.973085, 131.85391, -102.765083)"/>
</svg>